<?xml version="1.0" encoding="utf-8"?>
<!-- Generator: Adobe Illustrator 23.1.0, SVG Export Plug-In . SVG Version: 6.00 Build 0)  -->
<svg version="1.1" id="mupsy_logo" xmlns="http://www.w3.org/2000/svg" xmlns:xlink="http://www.w3.org/1999/xlink"  xml:space="preserve" x="0px" y="0px" viewBox="0 0 256 256">
<style type="text/css">
.s{
    fill:#00BEFC;
    stroke: #00BEFC;
    stroke-width: 0;
}
</style>
<g class="s">
    <path d="M48,64a8 8 0 0 0 16 0v32a8 8 0 0 0 -16 0v-32z"/>
    <g>
        <circle cx="32" cy="64" r="16"/>
        <circle cx="32" cy="128" r="16"/>
        <rect x="16" y="64" width="32" height="64" />
    </g>
    <g>
        <circle cx="80" cy="48" r="16"/>
        <circle cx="80" cy="176" r="16"/>
        <rect x="64" y="48" width="32" height="128" />
    </g>
</g>
<g class="s">
    <path d="M192,96a8 8 0 0 0 16 0v32a8 8 0 0 0 -16 0v-32z"/>
    <g>
        <circle cx="176" cy="48" r="16"/>
        <circle cx="176" cy="176" r="16"/>
        <rect x="160" y="48" width="32" height="128" />
    </g>
    <g>
        <circle cx="224" cy="64" r="16"/>
        <circle cx="224" cy="128" r="16"/>
        <rect x="208" y="64" width="32" height="64" />
    </g>
</g>
<g class="s">
    <circle cx="128" cy="128" r="16"/>
    <circle cx="128" cy="224" r="16"/>
    <rect x="112" y="128" width="32" height="96" />
</g>
</svg>
